<?xml version="1.0" encoding="UTF-8" standalone="no"?>
<!DOCTYPE svg PUBLIC "-//W3C//DTD SVG 1.1//EN" "http://www.w3.org/Graphics/SVG/1.1/DTD/svg11.dtd">
<svg version="1.1" xmlns="http://www.w3.org/2000/svg" xmlns:xlink="http://www.w3.org/1999/xlink" preserveAspectRatio="xMidYMid meet" viewBox="0 0 640 640" width="640" height="640"><defs><path d="M388.42 167.44L393.95 169.82L399.35 172.4L404.64 175.17L409.8 178.13L414.83 181.28L419.72 184.6L424.48 188.1L429.08 191.77L433.54 195.6L437.84 199.6L441.98 203.75L445.95 208.05L449.76 212.49L453.38 217.08L456.83 221.8L460.09 226.65L463.16 231.63L466.03 236.73L468.7 241.95L471.17 247.28L473.43 252.72L475.46 258.25L477.28 263.89L478.87 269.61L480.23 275.43L481.36 281.33L482.24 287.3L482.88 293.35L483.27 299.46L483.4 305.64L483.27 311.82L482.88 317.94L482.24 323.99L481.36 329.96L480.23 335.86L478.87 341.67L477.28 347.4L475.46 353.03L473.43 358.57L471.17 364.01L468.7 369.34L466.03 374.55L463.16 379.65L460.09 384.63L456.83 389.49L453.38 394.21L449.76 398.79L445.95 403.24L441.98 407.54L437.84 411.69L433.54 415.68L429.08 419.52L424.48 423.19L419.72 426.69L414.83 430.01L409.8 433.16L404.64 436.12L399.35 438.89L393.95 441.47L388.42 443.85L382.79 446.02L377.05 447.99L371.21 449.75L365.28 451.28L359.25 452.59L353.14 453.68L346.95 454.53L340.68 455.15L334.34 455.52L327.94 455.64L321.53 455.52L315.19 455.15L308.93 454.53L302.73 453.68L296.62 452.59L290.6 451.28L284.66 449.75L278.82 447.99L273.08 446.02L267.45 443.85L261.92 441.47L256.52 438.89L251.23 436.12L246.07 433.16L241.04 430.01L236.15 426.69L231.39 423.19L226.79 419.52L222.33 415.68L220.1 413.61L225.35 415.19L231.29 416.73L237.31 418.04L243.43 419.12L249.62 419.98L255.89 420.59L262.22 420.96L268.63 421.09L275.03 420.96L281.37 420.59L287.64 419.98L293.83 419.12L299.94 418.04L305.97 416.73L311.9 415.19L317.74 413.44L323.48 411.47L329.12 409.29L334.64 406.91L340.05 404.34L345.33 401.56L350.49 398.6L355.52 395.46L360.42 392.13L365.17 388.63L369.78 384.96L374.23 381.13L378.53 377.13L382.67 372.98L386.65 368.68L390.45 364.24L394.08 359.65L397.52 354.93L400.78 350.08L403.85 345.1L406.73 340L409.4 334.78L411.86 329.45L414.12 324.02L416.16 318.48L417.98 312.84L419.57 307.12L420.93 301.3L422.05 295.41L422.94 289.43L423.57 283.38L423.96 277.27L424.09 271.09L423.96 264.91L423.57 258.79L422.94 252.75L422.05 246.77L420.93 240.87L419.57 235.06L417.98 229.33L416.16 223.7L414.12 218.16L411.86 212.73L409.4 207.4L406.73 202.18L403.85 197.08L400.78 192.1L397.52 187.25L394.08 182.53L390.45 177.94L386.65 173.49L382.67 169.19L378.53 165.04L376.46 163.12L377.05 163.3L382.79 165.26L382.79 165.26L388.42 167.44Z" id="g1rKVU3VJb"></path></defs><g><g><g><use xlink:href="#g1rKVU3VJb" opacity="1" fill="#000000" fill-opacity="1"></use></g></g></g></svg>