<?xml version="1.0" encoding="UTF-8" standalone="no"?>
<!DOCTYPE svg PUBLIC "-//W3C//DTD SVG 1.1//EN" "http://www.w3.org/Graphics/SVG/1.1/DTD/svg11.dtd">
<svg version="1.1" xmlns="http://www.w3.org/2000/svg" xmlns:xlink="http://www.w3.org/1999/xlink" preserveAspectRatio="xMidYMid meet" viewBox="0 0 640 640" width="640" height="640"><defs><path d="M339.59 209.77L417.87 220.33L361.22 271.57L374.6 343.94L304.57 309.77L234.55 343.94L247.93 271.57L191.28 220.33L269.57 209.77L304.57 143.94L339.59 209.77Z" id="c3zrS2cnF4"></path><path d="M502.68 271.4L565.53 280.11L520.05 322.36L530.79 382.02L474.57 353.85L418.36 382.02L429.1 322.36L383.62 280.11L446.47 271.4L474.57 217.13L502.68 271.4Z" id="c1qGfTrHVN"></path><path d="M388.24 411.95L424.26 417.4L398.19 443.83L404.34 481.17L372.13 463.54L339.91 481.17L346.07 443.83L320 417.4L356.02 411.95L372.13 377.98L388.24 411.95Z" id="bZIxoocEB"></path></defs><g><g><g><use xlink:href="#c3zrS2cnF4" opacity="1" fill="#000000" fill-opacity="1"></use><g><use xlink:href="#c3zrS2cnF4" opacity="1" fill-opacity="0" stroke="#000000" stroke-width="1" stroke-opacity="1"></use></g></g><g><use xlink:href="#c1qGfTrHVN" opacity="1" fill="#000000" fill-opacity="1"></use><g><use xlink:href="#c1qGfTrHVN" opacity="1" fill-opacity="0" stroke="#000000" stroke-width="1" stroke-opacity="1"></use></g></g><g><use xlink:href="#bZIxoocEB" opacity="1" fill="#000000" fill-opacity="1"></use><g><use xlink:href="#bZIxoocEB" opacity="1" fill-opacity="0" stroke="#000000" stroke-width="1" stroke-opacity="1"></use></g></g></g></g></svg>